<?xml version="1.0" encoding="utf-8"?>
<!-- Generator: Adobe Illustrator 19.1.0, SVG Export Plug-In . SVG Version: 6.00 Build 0)  -->
<svg version="1.1" id="Calque_1" xmlns="http://www.w3.org/2000/svg" xmlns:xlink="http://www.w3.org/1999/xlink" x="0px" y="0px"
	 viewBox="0 0 55 55" style="enable-background:new 0 0 55 55;" xml:space="preserve">
<style type="text/css">
	.st0{fill:#CF4545;}
</style>
<g>
	<path class="st0" d="M33,14.3c2.5,1.5,4.2,4.2,4.5,7.2c1,0.5,2.1,0.7,3.3,0.7c4.3,0,7.8-3.5,7.8-7.8c0-4.3-3.5-7.8-7.8-7.8
		C36.5,6.6,33.1,10,33,14.3z M27.9,30.3c4.3,0,7.8-3.5,7.8-7.8s-3.5-7.8-7.8-7.8s-7.8,3.5-7.8,7.8S23.6,30.3,27.9,30.3z M31.2,30.8
		h-6.6c-5.5,0-10,4.5-10,10v8.1l0,0.1l0.6,0.2c5.3,1.6,9.8,2.2,13.6,2.2c7.3,0,11.6-2.1,11.9-2.2l0.5-0.3h0.1v-8.1
		C41.2,35.3,36.7,30.8,31.2,30.8z M44.1,22.8h-6.6c-0.1,2.6-1.2,5-3,6.7c4.9,1.5,8.5,6,8.5,11.4v2.5c6.5-0.2,10.2-2.1,10.5-2.2
		l0.5-0.3h0.1v-8.1C54.1,27.2,49.6,22.8,44.1,22.8z M14.2,22.2c1.5,0,2.9-0.4,4.2-1.2c0.4-2.5,1.7-4.7,3.6-6.2c0-0.1,0-0.3,0-0.4
		c0-4.3-3.5-7.8-7.8-7.8c-4.3,0-7.8,3.5-7.8,7.8C6.4,18.7,9.9,22.2,14.2,22.2z M21.2,29.5c-1.8-1.7-2.9-4.1-3-6.7
		c-0.2,0-0.5,0-0.7,0h-6.6c-5.5,0-10,4.5-10,10v8.1l0,0.1l0.6,0.2c4.2,1.3,8,1.9,11.3,2.1v-2.4C12.7,35.5,16.3,30.9,21.2,29.5z"/>
</g>
</svg>
