<?xml version="1.0" encoding="utf-8"?>
<!-- Generator: Adobe Illustrator 19.1.0, SVG Export Plug-In . SVG Version: 6.00 Build 0)  -->
<svg version="1.1" id="Calque_1" xmlns="http://www.w3.org/2000/svg" xmlns:xlink="http://www.w3.org/1999/xlink" x="0px" y="0px"
	 viewBox="0 0 55 55" style="enable-background:new 0 0 55 55;" xml:space="preserve">
<style type="text/css">
	.st0{fill:#FFFFFF;}
</style>
<g>
	<path class="st0" d="M54.2,17.3L43,28.1l-2.3-2.4l8.5-8.2c0.8-0.8,0.8-2.1,0.1-2.9l-7.6-7.8c-0.4-0.4-0.9-0.6-1.4-0.6
		c-0.5,0-1.1,0.2-1.5,0.6l-6.7,6.4l5.8,6c0.5,0.5,0.4,1.3-0.1,1.8c-0.3,0.3-0.9,0.4-1.3,0.3l-8.4-8.9l11-10.6
		c0.7-0.6,1.7-0.6,2.4,0.1l12.7,13.2C54.9,15.6,54.9,16.6,54.2,17.3z M16.2,49.3c-0.4,0.4-0.9,0.6-1.5,0.6c-0.5,0-1.1-0.2-1.4-0.6
		l-7.6-7.8C5,40.5,5,39.3,5.8,38.5l3.5,3.6c0.5,0.5,1.3,0.5,1.8,0s0.5-1.3,0-1.8l-3.5-3.6l0.9-0.9l3.5,3.6c0.5,0.5,1.3,0.5,1.8,0
		c0.5-0.5,0.5-1.3,0-1.8l-3.5-3.6l0.9-0.9l3.5,3.6c0.5,0.5,1.3,0.5,1.8,0c0.5-0.5,0.5-1.3,0-1.8L13,31.5l0.9-0.9l3.5,3.6
		c0.5,0.5,1.3,0.5,1.8,0c0.2-0.2,0.3-0.4,0.4-0.6l-6.4-6.8L0.8,38.6c-0.7,0.6-0.7,1.7,0,2.4l12.7,13.2c0.6,0.7,1.7,0.7,2.4,0.1
		L28,42.6l-2.3-2.4L16.2,49.3z M38.4,16.9c-1.6-1.7-1.6-4.3,0.1-5.9c1.7-1.6,4.3-1.6,5.9,0.1c1.6,1.7,1.5,4.3-0.1,5.9
		C42.7,18.6,40,18.5,38.4,16.9z M40.2,15.1c0.6,0.7,1.7,0.7,2.4,0c0.7-0.6,0.7-1.7,0-2.4c-0.6-0.7-1.7-0.7-2.4,0
		C39.6,13.4,39.6,14.4,40.2,15.1z M47,36.5L36,46.8L11.7,21l10.9-10.3L47,36.5z M24.4,17.9c0-0.2-0.1-0.5-0.3-0.7L23,15.9
		c-0.4-0.4-0.9-0.4-1.3,0L21,16.5c-0.4,0.4-0.4,1,0,1.3l1.2,1.3c0.2,0.2,0.4,0.3,0.7,0.3c0.2,0,1.3-0.9,1.3-0.9
		C24.3,18.4,24.4,18.1,24.4,17.9z M41.4,36.8c0.4-0.4,0.4-1,0-1.3L27.7,21c-0.2-0.2-0.4-0.3-0.7-0.3c-0.2,0-0.5,0.1-0.7,0.3
		l-0.6,0.6c-0.4,0.4-0.4,0.9,0,1.3l13.7,14.5c0.2,0.2,0.4,0.3,0.7,0.3c0.3,0,0.5-0.1,0.7-0.3L41.4,36.8z M10.6,19.8L21.5,9.5l-2.8-3
		L7.7,16.8L10.6,19.8z M2.8,11.6C2.3,11,1.9,10.1,2,9.3C2,8.4,2.4,7.6,3,7l6.2-5.8c1.3-1.2,3.4-1.2,4.6,0.1l3.8,4.1L6.7,15.7
		L2.8,11.6z M4.8,9.4l2,2.1l6.6-6.3l-2-2.1L4.8,9.4z M52.5,51.3c0.2,0.6,0,1.2-0.4,1.7c-0.5,0.4-1.1,0.6-1.7,0.3l-13-5L48.4,38
		L52.5,51.3z M49.1,46.8l-1.6-5.2l-6.4,6l5.1,2L49.1,46.8z"/>
</g>
</svg>
