<?xml version="1.0" encoding="utf-8"?>
<!-- Generator: Adobe Illustrator 19.1.0, SVG Export Plug-In . SVG Version: 6.00 Build 0)  -->
<svg version="1.1" id="Calque_1" xmlns="http://www.w3.org/2000/svg" xmlns:xlink="http://www.w3.org/1999/xlink" x="0px" y="0px"
	 viewBox="0 0 25 25" style="enable-background:new 0 0 25 25;" xml:space="preserve">
<style type="text/css">
	.st0{fill:#FFFFFF;}
</style>
<path id="linkedin-icon" class="st0" d="M7.5,5.1c0,1.3-1.1,2.4-2.4,2.4S2.7,6.5,2.7,5.1c0-1.3,1.1-2.4,2.4-2.4
	C6.4,2.7,7.5,3.8,7.5,5.1z M7.2,9.2h-4v13h4V9.2z M13.6,9.2H9.7v13h3.9c0,0,0-4.8,0-6.8c0-1.8,0.8-2.9,2.5-2.9c1.5,0,2.2,1,2.2,2.9
	c0,1.9,0,6.8,0,6.8h4c0,0,0-4.8,0-8.3s-2-5.2-4.7-5.2S13.6,11,13.6,11L13.6,9.2L13.6,9.2z"/>
</svg>
