<?xml version="1.0" encoding="utf-8"?>
<!-- Generator: Adobe Illustrator 19.1.0, SVG Export Plug-In . SVG Version: 6.00 Build 0)  -->
<svg version="1.1" id="Calque_1" xmlns="http://www.w3.org/2000/svg" xmlns:xlink="http://www.w3.org/1999/xlink" x="0px" y="0px"
	 viewBox="0 0 45 45" style="enable-background:new 0 0 45 45;" xml:space="preserve">
<style type="text/css">
	.st0{fill:#FFFFFF;}
</style>
<g>
	<g id="news_2_">
		<path class="st0" d="M39.6,2.8H11.7c-2.1,0-3.8,1.7-3.8,3.8v2.5H6.6c-2.1,0-3.8,1.7-3.8,3.8v25.4c0,2.8,2.3,5.1,5.1,5.1h30.4
			c2.8,0,5.1-2.3,5.1-5.1V6.6C43.4,4.5,41.7,2.8,39.6,2.8z M40.8,38.3c0,1.4-1.1,2.5-2.5,2.5H7.9c-1.4,0-2.5-1.1-2.5-2.5V12.9
			c0-0.7,0.6-1.3,1.3-1.3h1.3V37c0,0.7,0.6,1.3,1.3,1.3s1.3-0.6,1.3-1.3V6.6c0-0.7,0.6-1.3,1.3-1.3h27.9c0.7,0,1.3,0.6,1.3,1.3V38.3
			z"/>
		<path class="st0" d="M27.5,19.3h10.1c0.4,0,0.6-0.3,0.6-0.6S38,18,37.7,18H27.5c-0.3,0-0.6,0.3-0.6,0.6S27.2,19.3,27.5,19.3z"/>
		<path class="st0" d="M27.5,15.5h10.1c0.4,0,0.6-0.3,0.6-0.6c0-0.3-0.3-0.6-0.6-0.6H27.5c-0.3,0-0.6,0.3-0.6,0.6
			C26.9,15.2,27.2,15.5,27.5,15.5z"/>
		<path class="st0" d="M27.5,11.7h10.1c0.4,0,0.6-0.3,0.6-0.6s-0.3-0.6-0.6-0.6H27.5c-0.3,0-0.6,0.3-0.6,0.6S27.2,11.7,27.5,11.7z"
			/>
		<path class="st0" d="M23.7,37H13.6c-0.3,0-0.6,0.3-0.6,0.6c0,0.4,0.3,0.6,0.6,0.6h10.1c0.3,0,0.6-0.3,0.6-0.6
			C24.3,37.3,24.1,37,23.7,37z"/>
		<path class="st0" d="M23.7,33.2H13.6c-0.3,0-0.6,0.3-0.6,0.6c0,0.4,0.3,0.6,0.6,0.6h10.1c0.3,0,0.6-0.3,0.6-0.6
			C24.3,33.5,24.1,33.2,23.7,33.2z"/>
		<path class="st0" d="M23.7,29.4H13.6c-0.3,0-0.6,0.3-0.6,0.6c0,0.4,0.3,0.6,0.6,0.6h10.1c0.3,0,0.6-0.3,0.6-0.6
			C24.3,29.7,24.1,29.4,23.7,29.4z"/>
		<path class="st0" d="M37.7,37H27.5c-0.4,0-0.6,0.3-0.6,0.6c0,0.4,0.3,0.6,0.6,0.6h10.1c0.3,0,0.6-0.3,0.6-0.6
			C38.3,37.3,38,37,37.7,37z"/>
		<path class="st0" d="M37.7,33.2H27.5c-0.4,0-0.6,0.3-0.6,0.6c0,0.4,0.3,0.6,0.6,0.6h10.1c0.3,0,0.6-0.3,0.6-0.6
			C38.3,33.5,38,33.2,37.7,33.2z"/>
		<path class="st0" d="M37.7,29.4H27.5c-0.4,0-0.6,0.3-0.6,0.6c0,0.4,0.3,0.6,0.6,0.6h10.1c0.3,0,0.6-0.3,0.6-0.6
			C38.3,29.7,38,29.4,37.7,29.4z"/>
		<path class="st0" d="M37.7,21.8H13.6c-0.3,0-0.6,0.3-0.6,0.6c0,0.3,0.3,0.6,0.6,0.6h24.1c0.3,0,0.6-0.3,0.6-0.6
			C38.3,22.1,38,21.8,37.7,21.8z"/>
		<path class="st0" d="M37.7,25.6H13.6c-0.3,0-0.6,0.3-0.6,0.6c0,0.4,0.3,0.6,0.6,0.6h24.1c0.3,0,0.6-0.3,0.6-0.6
			C38.3,25.9,38,25.6,37.7,25.6z"/>
		<path class="st0" d="M14.2,19.3h8.9c0.7,0,1.3-0.6,1.3-1.3V9.1c0-0.7-0.6-1.3-1.3-1.3h-8.9c-0.7,0-1.3,0.6-1.3,1.3V18
			C12.9,18.7,13.5,19.3,14.2,19.3z M15.5,10.4h6.3v6.3h-6.3V10.4z"/>
	</g>
</g>
</svg>
